Coordinates
version=1
nRows=9
nColumns=24
inDegrees=yes

Units are S.I. units (second, meters, Newtons, ...)
Angles are in degrees.

endheader
time	pelvis_tilt	pelvis_list	pelvis_rotation	pelvis_tx	pelvis_ty	pelvis_tz	hip_flexion_r	hip_adduction_r	hip_rotation_r	knee_angle_r	ankle_angle_r	subtalar_angle_r	mtp_angle_r	hip_flexion_l	hip_adduction_l	hip_rotation_l	knee_angle_l	ankle_angle_l	subtalar_angle_l	mtp_angle_l	lumbar_extension	lumbar_bending	lumbar_rotation
      1.82500000	      4.80105993	      6.50773972	     -8.88170677	     -0.68383101	      0.97646095	      0.03152816	     -7.84946339	     -8.31581322	    -11.19317015	    -20.06924605	     16.28791877	      6.80392761	      2.34458532	     14.69973941	      6.77290207	    -27.09584460	      1.31105532	     -4.30780397	     13.21889761	     39.55528810	    -19.32975769	     -7.22146008	     16.37842316
      1.83000000	      4.98427337	      6.61648138	     -8.94340541	     -0.67822384	      0.97627407	      0.03127245	     -8.40173730	     -8.52900285	    -11.18810735	    -20.03446339	     16.32103949	      6.78020741	      2.40326849	     14.56784590	      6.90065118	    -26.89196374	      0.72867737	     -4.44296065	     12.21568851	     39.55156737	    -19.45026811	     -7.41039350	     16.31793231
      1.83500000	      5.19154391	      6.73945479	     -8.93898951	     -0.67251207	      0.97615893	      0.03093504	     -9.01372130	     -8.75384259	    -11.28898190	    -19.97572374	     16.31073351	      6.81056342	      2.55390132	     14.39777776	      7.06796596	    -26.57186125	      0.15758149	     -4.63385777	     11.13242260	     39.64972276	    -19.59681823	     -7.60102552	     16.14940321
      1.84000000	      5.45330554	      6.89642448	     -8.85918270	     -0.66662121	      0.97616144	      0.03048833	     -9.73551976	     -9.01846770	    -11.56217182	    -19.86418138	     16.17843069	      6.92599999	      3.27359821	     14.14645725	      7.30848820	    -26.20618240	     -0.37009530	     -4.94437360	     10.09085957	     40.45365611	    -19.79881593	     -7.80975183	     15.81416885
      1.84500000	      5.59207930	      7.02913902	     -8.84865709	     -0.66093629	      0.97602457	      0.03010988	    -10.23659761	     -9.23765990	    -11.60269756	    -19.85933293	     16.03304490	      6.84680315	      3.96198847	     14.03875361	      7.48226840	    -25.84612002	     -0.90109902	     -5.28887253	      8.92277590	     40.99591448	    -19.87654510	     -8.00058015	     15.66130842
      1.85000000	      5.79015058	      7.16388109	     -8.82922023	     -0.65526256	      0.97600840	      0.02971959	    -10.79047325	     -9.46643681	    -11.65690934	    -19.88316178	     15.92139528	      6.78586010	      4.46547172	     13.85817917	      7.67254563	    -25.45830790	     -1.41369023	     -5.60305600	      7.86283349	     41.30466897	    -20.02838918	     -8.20028546	     15.48807106
      1.85500000	      5.93558912	      7.29577252	     -8.85532224	     -0.64965701	      0.97599897	      0.02938132	    -11.23508704	     -9.68750522	    -11.59447295	    -19.96428105	     15.75413720	      6.60452382	      4.74059590	     13.72438866	      7.84414765	    -25.16496438	     -1.89178453	     -6.00475682	      6.87256876	     41.40799743	    -20.12248993	     -8.40626730	     15.41660301
      1.86000000	      6.12311663	      7.47543698	     -8.79849926	     -0.64384660	      0.97607840	      0.02892877	    -11.77039627	     -9.95849790	    -11.69748892	    -20.00440556	     15.35041695	      6.46232220	      6.64267291	     13.51950847	      8.10188757	    -24.80636741	     -2.31885374	     -6.47687460	      5.85218601	     42.71834300	    -20.25356764	     -8.64164835	     15.15333135
      1.86500000	      6.19441365	      7.61699197	     -8.75833249	     -0.63826976	      0.97606374	      0.02845722	    -12.08929853	    -10.17649298	    -11.66025857	    -20.18714261	     15.12710178	      6.28134088	      6.88047510	     13.46416885	      8.28467296	    -24.41030515	     -2.80208161	     -6.81910218	      4.90143490	     42.70309598	    -20.28608335	     -8.82738487	     14.98937972
